<svg width="14" height="14" viewBox="0 0 14 14" fill="none" xmlns="http://www.w3.org/2000/svg">
<path d="M7.00312 3.41172C5.01562 3.41172 3.41249 5.01484 3.41249 7.00234C3.41249 8.98984 5.01562 10.593 7.00312 10.593C8.99062 10.593 10.5937 8.98984 10.5937 7.00234C10.5937 5.01484 8.99062 3.41172 7.00312 3.41172ZM7.00312 9.33672C5.71874 9.33672 4.66874 8.28984 4.66874 7.00234C4.66874 5.71484 5.71562 4.66797 7.00312 4.66797C8.29062 4.66797 9.33749 5.71484 9.33749 7.00234C9.33749 8.28984 8.28749 9.33672 7.00312 9.33672ZM11.5781 3.26484C11.5781 3.73047 11.2031 4.10234 10.7406 4.10234C10.275 4.10234 9.90312 3.72734 9.90312 3.26484C9.90312 2.80234 10.2781 2.42734 10.7406 2.42734C11.2031 2.42734 11.5781 2.80234 11.5781 3.26484ZM13.9562 4.11484C13.9031 2.99297 13.6469 1.99922 12.825 1.18047C12.0062 0.361719 11.0125 0.105469 9.89062 0.0492187C8.73437 -0.0164062 5.26874 -0.0164062 4.11249 0.0492187C2.99374 0.102344 1.99999 0.358594 1.17812 1.17734C0.356244 1.99609 0.103119 2.98984 0.0468689 4.11172C-0.0187561 5.26797 -0.0187561 8.73359 0.0468689 9.88984C0.0999939 11.0117 0.356244 12.0055 1.17812 12.8242C1.99999 13.643 2.99062 13.8992 4.11249 13.9555C5.26874 14.0211 8.73437 14.0211 9.89062 13.9555C11.0125 13.9023 12.0062 13.6461 12.825 12.8242C13.6437 12.0055 13.9 11.0117 13.9562 9.88984C14.0219 8.73359 14.0219 5.27109 13.9562 4.11484ZM12.4625 11.1305C12.2187 11.743 11.7469 12.2148 11.1312 12.4617C10.2094 12.8273 8.02187 12.743 7.00312 12.743C5.98437 12.743 3.79374 12.8242 2.87499 12.4617C2.26249 12.218 1.79062 11.7461 1.54374 11.1305C1.17812 10.2086 1.26249 8.02109 1.26249 7.00234C1.26249 5.98359 1.18124 3.79297 1.54374 2.87422C1.78749 2.26172 2.25937 1.78984 2.87499 1.54297C3.79687 1.17734 5.98437 1.26172 7.00312 1.26172C8.02187 1.26172 10.2125 1.18047 11.1312 1.54297C11.7437 1.78672 12.2156 2.25859 12.4625 2.87422C12.8281 3.79609 12.7437 5.98359 12.7437 7.00234C12.7437 8.02109 12.8281 10.2117 12.4625 11.1305Z" fill="white"/>
</svg>
