<svg width="15" height="14" viewBox="0 0 15 14" fill="none" xmlns="http://www.w3.org/2000/svg">
<path d="M14.5367 2.83828L12.9699 0.358203C12.8305 0.136719 12.5817 0 12.3164 0H2.56017C2.29493 0 2.04611 0.136719 1.90665 0.358203L0.337122 2.83828C-0.472253 4.11797 0.244153 5.89805 1.75626 6.10313C1.86564 6.1168 1.97775 6.125 2.08712 6.125C2.80079 6.125 3.43517 5.81328 3.86993 5.33203C4.3047 5.81328 4.93907 6.125 5.65275 6.125C6.36642 6.125 7.00079 5.81328 7.43556 5.33203C7.87033 5.81328 8.5047 6.125 9.21837 6.125C9.93478 6.125 10.5664 5.81328 11.0012 5.33203C11.4387 5.81328 12.0703 6.125 12.784 6.125C12.8961 6.125 13.0055 6.1168 13.1149 6.10313C14.6324 5.90078 15.3516 4.1207 14.5395 2.83828H14.5367ZM13.227 6.96992H13.2242C13.0793 6.98906 12.9317 7 12.7813 7C12.4422 7 12.1168 6.94805 11.8133 6.85508V10.5H3.06329V6.85234C2.75704 6.94805 2.42892 7 2.08986 7C1.93947 7 1.78908 6.98906 1.64415 6.96992H1.64142C1.52931 6.95352 1.41993 6.93438 1.31329 6.90703V10.5V12.25C1.31329 13.2152 2.09806 14 3.06329 14H11.8133C12.7785 14 13.5633 13.2152 13.5633 12.25V10.5V6.90703C13.4539 6.93438 13.3445 6.95625 13.227 6.96992Z" fill="white"/>
</svg>
